<mxfile host="app.diagrams.net" modified="2022-12-10T20:56:24.571Z" agent="5.0 (Windows NT 10.0; Win64; x64) AppleWebKit/537.36 (KHTML, like Gecko) Chrome/108.0.0.0 Safari/537.36 Edg/108.0.1462.42" version="20.6.1" etag="Ag7sX1gr-VlfKc9Fi4cO" type="github">
  <diagram id="Jkc7QlWT-UlJwg2s6xOV" name="第 1 页">
    <mxGraphModel dx="1375" dy="762" grid="1" gridSize="10" guides="1" tooltips="1" connect="1" arrows="1" fold="1" page="1" pageScale="1" pageWidth="1169" pageHeight="827" math="0" shadow="0">
      <root>
        <mxCell id="0" />
        <mxCell id="1" parent="0" />
        <mxCell id="kN23SIiuE2cJNR3_Q04W-8" value="" style="shape=table;startSize=0;container=1;collapsible=0;childLayout=tableLayout;sketch=1;fontSize=16;fontFamily=Comic Sans MS;flipV=1;movable=1;resizable=1;rotatable=1;deletable=1;editable=1;connectable=1;" vertex="1" parent="1">
          <mxGeometry x="801" y="200" width="160" height="80" as="geometry" />
        </mxCell>
        <mxCell id="kN23SIiuE2cJNR3_Q04W-9" value="" style="shape=tableRow;horizontal=0;startSize=0;swimlaneHead=0;swimlaneBody=0;top=0;left=0;bottom=0;right=0;collapsible=0;dropTarget=0;fillColor=none;points=[[0,0.5],[1,0.5]];portConstraint=eastwest;sketch=1;fontSize=16;fontFamily=Comic Sans MS;movable=1;resizable=1;rotatable=1;deletable=1;editable=1;connectable=1;" vertex="1" parent="kN23SIiuE2cJNR3_Q04W-8">
          <mxGeometry width="160" height="40" as="geometry" />
        </mxCell>
        <mxCell id="kN23SIiuE2cJNR3_Q04W-10" value="LinkNode" style="shape=partialRectangle;html=1;whiteSpace=wrap;connectable=1;overflow=hidden;fillColor=none;top=0;left=0;bottom=0;right=0;pointerEvents=1;sketch=1;fontSize=16;fontFamily=Comic Sans MS;movable=1;resizable=1;rotatable=1;deletable=1;editable=1;" vertex="1" parent="kN23SIiuE2cJNR3_Q04W-9">
          <mxGeometry width="160" height="40" as="geometry">
            <mxRectangle width="160" height="40" as="alternateBounds" />
          </mxGeometry>
        </mxCell>
        <mxCell id="kN23SIiuE2cJNR3_Q04W-11" value="" style="shape=tableRow;horizontal=0;startSize=0;swimlaneHead=0;swimlaneBody=0;top=0;left=0;bottom=0;right=0;collapsible=0;dropTarget=0;fillColor=none;points=[[0,0.5],[1,0.5]];portConstraint=eastwest;sketch=1;fontSize=16;fontFamily=Comic Sans MS;movable=1;resizable=1;rotatable=1;deletable=1;editable=1;connectable=1;" vertex="1" parent="kN23SIiuE2cJNR3_Q04W-8">
          <mxGeometry y="40" width="160" height="40" as="geometry" />
        </mxCell>
        <mxCell id="kN23SIiuE2cJNR3_Q04W-12" value="method: process()" style="shape=partialRectangle;html=1;whiteSpace=wrap;connectable=1;overflow=hidden;fillColor=none;top=0;left=0;bottom=0;right=0;pointerEvents=1;sketch=1;fontSize=16;fontFamily=Comic Sans MS;movable=1;resizable=1;rotatable=1;deletable=1;editable=1;" vertex="1" parent="kN23SIiuE2cJNR3_Q04W-11">
          <mxGeometry width="160" height="40" as="geometry">
            <mxRectangle width="160" height="40" as="alternateBounds" />
          </mxGeometry>
        </mxCell>
        <mxCell id="kN23SIiuE2cJNR3_Q04W-13" value="" style="shape=table;startSize=0;container=1;collapsible=0;childLayout=tableLayout;sketch=1;fontSize=16;fontFamily=Comic Sans MS;flipV=1;movable=1;resizable=1;rotatable=1;deletable=1;editable=1;connectable=1;" vertex="1" parent="1">
          <mxGeometry x="160" y="39" width="160" height="80" as="geometry" />
        </mxCell>
        <mxCell id="kN23SIiuE2cJNR3_Q04W-14" value="" style="shape=tableRow;horizontal=0;startSize=0;swimlaneHead=0;swimlaneBody=0;top=0;left=0;bottom=0;right=0;collapsible=0;dropTarget=0;fillColor=none;points=[[0,0.5],[1,0.5]];portConstraint=eastwest;sketch=1;fontSize=16;fontFamily=Comic Sans MS;movable=1;resizable=1;rotatable=1;deletable=1;editable=1;connectable=1;" vertex="1" parent="kN23SIiuE2cJNR3_Q04W-13">
          <mxGeometry width="160" height="40" as="geometry" />
        </mxCell>
        <mxCell id="kN23SIiuE2cJNR3_Q04W-15" value="StartNode" style="shape=partialRectangle;html=1;whiteSpace=wrap;connectable=1;overflow=hidden;fillColor=none;top=0;left=0;bottom=0;right=0;pointerEvents=1;sketch=1;fontSize=16;fontFamily=Comic Sans MS;movable=1;resizable=1;rotatable=1;deletable=1;editable=1;" vertex="1" parent="kN23SIiuE2cJNR3_Q04W-14">
          <mxGeometry width="160" height="40" as="geometry">
            <mxRectangle width="160" height="40" as="alternateBounds" />
          </mxGeometry>
        </mxCell>
        <mxCell id="kN23SIiuE2cJNR3_Q04W-16" value="" style="shape=tableRow;horizontal=0;startSize=0;swimlaneHead=0;swimlaneBody=0;top=0;left=0;bottom=0;right=0;collapsible=0;dropTarget=0;fillColor=none;points=[[0,0.5],[1,0.5]];portConstraint=eastwest;sketch=1;fontSize=16;fontFamily=Comic Sans MS;movable=1;resizable=1;rotatable=1;deletable=1;editable=1;connectable=1;" vertex="1" parent="kN23SIiuE2cJNR3_Q04W-13">
          <mxGeometry y="40" width="160" height="40" as="geometry" />
        </mxCell>
        <mxCell id="kN23SIiuE2cJNR3_Q04W-17" value="method: process()" style="shape=partialRectangle;html=1;whiteSpace=wrap;connectable=1;overflow=hidden;fillColor=none;top=0;left=0;bottom=0;right=0;pointerEvents=1;sketch=1;fontSize=16;fontFamily=Comic Sans MS;movable=1;resizable=1;rotatable=1;deletable=1;editable=1;" vertex="1" parent="kN23SIiuE2cJNR3_Q04W-16">
          <mxGeometry width="160" height="40" as="geometry">
            <mxRectangle width="160" height="40" as="alternateBounds" />
          </mxGeometry>
        </mxCell>
        <mxCell id="kN23SIiuE2cJNR3_Q04W-18" value="" style="shape=table;startSize=0;container=1;collapsible=0;childLayout=tableLayout;sketch=1;fontSize=16;fontFamily=Comic Sans MS;flipV=1;movable=1;resizable=1;rotatable=1;deletable=1;editable=1;connectable=1;" vertex="1" parent="1">
          <mxGeometry x="160" y="200" width="160" height="80" as="geometry" />
        </mxCell>
        <mxCell id="kN23SIiuE2cJNR3_Q04W-19" value="" style="shape=tableRow;horizontal=0;startSize=0;swimlaneHead=0;swimlaneBody=0;top=0;left=0;bottom=0;right=0;collapsible=0;dropTarget=0;fillColor=none;points=[[0,0.5],[1,0.5]];portConstraint=eastwest;sketch=1;fontSize=16;fontFamily=Comic Sans MS;movable=1;resizable=1;rotatable=1;deletable=1;editable=1;connectable=1;" vertex="1" parent="kN23SIiuE2cJNR3_Q04W-18">
          <mxGeometry width="160" height="40" as="geometry" />
        </mxCell>
        <mxCell id="kN23SIiuE2cJNR3_Q04W-20" value="ReplyNode" style="shape=partialRectangle;html=1;whiteSpace=wrap;connectable=1;overflow=hidden;fillColor=none;top=0;left=0;bottom=0;right=0;pointerEvents=1;sketch=1;fontSize=16;fontFamily=Comic Sans MS;movable=1;resizable=1;rotatable=1;deletable=1;editable=1;" vertex="1" parent="kN23SIiuE2cJNR3_Q04W-19">
          <mxGeometry width="160" height="40" as="geometry">
            <mxRectangle width="160" height="40" as="alternateBounds" />
          </mxGeometry>
        </mxCell>
        <mxCell id="kN23SIiuE2cJNR3_Q04W-21" value="" style="shape=tableRow;horizontal=0;startSize=0;swimlaneHead=0;swimlaneBody=0;top=0;left=0;bottom=0;right=0;collapsible=0;dropTarget=0;fillColor=none;points=[[0,0.5],[1,0.5]];portConstraint=eastwest;sketch=1;fontSize=16;fontFamily=Comic Sans MS;movable=1;resizable=1;rotatable=1;deletable=1;editable=1;connectable=1;" vertex="1" parent="kN23SIiuE2cJNR3_Q04W-18">
          <mxGeometry y="40" width="160" height="40" as="geometry" />
        </mxCell>
        <mxCell id="kN23SIiuE2cJNR3_Q04W-22" value="method: process()" style="shape=partialRectangle;html=1;whiteSpace=wrap;connectable=1;overflow=hidden;fillColor=none;top=0;left=0;bottom=0;right=0;pointerEvents=1;sketch=1;fontSize=16;fontFamily=Comic Sans MS;movable=1;resizable=1;rotatable=1;deletable=1;editable=1;" vertex="1" parent="kN23SIiuE2cJNR3_Q04W-21">
          <mxGeometry width="160" height="40" as="geometry">
            <mxRectangle width="160" height="40" as="alternateBounds" />
          </mxGeometry>
        </mxCell>
        <mxCell id="kN23SIiuE2cJNR3_Q04W-23" value="" style="shape=table;startSize=0;container=1;collapsible=0;childLayout=tableLayout;sketch=1;fontSize=16;fontFamily=Comic Sans MS;flipV=1;movable=1;resizable=1;rotatable=1;deletable=1;editable=1;connectable=1;" vertex="1" parent="1">
          <mxGeometry x="160" y="360" width="160" height="80" as="geometry" />
        </mxCell>
        <mxCell id="kN23SIiuE2cJNR3_Q04W-24" value="" style="shape=tableRow;horizontal=0;startSize=0;swimlaneHead=0;swimlaneBody=0;top=0;left=0;bottom=0;right=0;collapsible=0;dropTarget=0;fillColor=none;points=[[0,0.5],[1,0.5]];portConstraint=eastwest;sketch=1;fontSize=16;fontFamily=Comic Sans MS;movable=1;resizable=1;rotatable=1;deletable=1;editable=1;connectable=1;" vertex="1" parent="kN23SIiuE2cJNR3_Q04W-23">
          <mxGeometry width="160" height="40" as="geometry" />
        </mxCell>
        <mxCell id="kN23SIiuE2cJNR3_Q04W-25" value="CollectNode" style="shape=partialRectangle;html=1;whiteSpace=wrap;connectable=1;overflow=hidden;fillColor=none;top=0;left=0;bottom=0;right=0;pointerEvents=1;sketch=1;fontSize=16;fontFamily=Comic Sans MS;movable=1;resizable=1;rotatable=1;deletable=1;editable=1;" vertex="1" parent="kN23SIiuE2cJNR3_Q04W-24">
          <mxGeometry width="160" height="40" as="geometry">
            <mxRectangle width="160" height="40" as="alternateBounds" />
          </mxGeometry>
        </mxCell>
        <mxCell id="kN23SIiuE2cJNR3_Q04W-26" value="" style="shape=tableRow;horizontal=0;startSize=0;swimlaneHead=0;swimlaneBody=0;top=0;left=0;bottom=0;right=0;collapsible=0;dropTarget=0;fillColor=none;points=[[0,0.5],[1,0.5]];portConstraint=eastwest;sketch=1;fontSize=16;fontFamily=Comic Sans MS;movable=1;resizable=1;rotatable=1;deletable=1;editable=1;connectable=1;" vertex="1" parent="kN23SIiuE2cJNR3_Q04W-23">
          <mxGeometry y="40" width="160" height="40" as="geometry" />
        </mxCell>
        <mxCell id="kN23SIiuE2cJNR3_Q04W-27" value="method: process()" style="shape=partialRectangle;html=1;whiteSpace=wrap;connectable=1;overflow=hidden;fillColor=none;top=0;left=0;bottom=0;right=0;pointerEvents=1;sketch=1;fontSize=16;fontFamily=Comic Sans MS;movable=1;resizable=1;rotatable=1;deletable=1;editable=1;" vertex="1" parent="kN23SIiuE2cJNR3_Q04W-26">
          <mxGeometry width="160" height="40" as="geometry">
            <mxRectangle width="160" height="40" as="alternateBounds" />
          </mxGeometry>
        </mxCell>
        <mxCell id="kN23SIiuE2cJNR3_Q04W-28" value="" style="shape=table;startSize=0;container=1;collapsible=0;childLayout=tableLayout;sketch=1;fontSize=16;fontFamily=Comic Sans MS;flipV=1;movable=1;resizable=1;rotatable=1;deletable=1;editable=1;connectable=1;" vertex="1" parent="1">
          <mxGeometry x="160" y="521" width="160" height="80" as="geometry" />
        </mxCell>
        <mxCell id="kN23SIiuE2cJNR3_Q04W-29" value="" style="shape=tableRow;horizontal=0;startSize=0;swimlaneHead=0;swimlaneBody=0;top=0;left=0;bottom=0;right=0;collapsible=0;dropTarget=0;fillColor=none;points=[[0,0.5],[1,0.5]];portConstraint=eastwest;sketch=1;fontSize=16;fontFamily=Comic Sans MS;movable=1;resizable=1;rotatable=1;deletable=1;editable=1;connectable=1;" vertex="1" parent="kN23SIiuE2cJNR3_Q04W-28">
          <mxGeometry width="160" height="40" as="geometry" />
        </mxCell>
        <mxCell id="kN23SIiuE2cJNR3_Q04W-30" value="SelectNode" style="shape=partialRectangle;html=1;whiteSpace=wrap;connectable=1;overflow=hidden;fillColor=none;top=0;left=0;bottom=0;right=0;pointerEvents=1;sketch=1;fontSize=16;fontFamily=Comic Sans MS;movable=1;resizable=1;rotatable=1;deletable=1;editable=1;" vertex="1" parent="kN23SIiuE2cJNR3_Q04W-29">
          <mxGeometry width="160" height="40" as="geometry">
            <mxRectangle width="160" height="40" as="alternateBounds" />
          </mxGeometry>
        </mxCell>
        <mxCell id="kN23SIiuE2cJNR3_Q04W-31" value="" style="shape=tableRow;horizontal=0;startSize=0;swimlaneHead=0;swimlaneBody=0;top=0;left=0;bottom=0;right=0;collapsible=0;dropTarget=0;fillColor=none;points=[[0,0.5],[1,0.5]];portConstraint=eastwest;sketch=1;fontSize=16;fontFamily=Comic Sans MS;movable=1;resizable=1;rotatable=1;deletable=1;editable=1;connectable=1;" vertex="1" parent="kN23SIiuE2cJNR3_Q04W-28">
          <mxGeometry y="40" width="160" height="40" as="geometry" />
        </mxCell>
        <mxCell id="kN23SIiuE2cJNR3_Q04W-32" value="method: process()" style="shape=partialRectangle;html=1;whiteSpace=wrap;connectable=1;overflow=hidden;fillColor=none;top=0;left=0;bottom=0;right=0;pointerEvents=1;sketch=1;fontSize=16;fontFamily=Comic Sans MS;movable=1;resizable=1;rotatable=1;deletable=1;editable=1;" vertex="1" parent="kN23SIiuE2cJNR3_Q04W-31">
          <mxGeometry width="160" height="40" as="geometry">
            <mxRectangle width="160" height="40" as="alternateBounds" />
          </mxGeometry>
        </mxCell>
        <mxCell id="kN23SIiuE2cJNR3_Q04W-33" value="" style="shape=table;startSize=0;container=1;collapsible=0;childLayout=tableLayout;sketch=1;fontSize=16;fontFamily=Comic Sans MS;flipV=1;movable=1;resizable=1;rotatable=1;deletable=1;editable=1;connectable=1;" vertex="1" parent="1">
          <mxGeometry x="801" y="39" width="160" height="80" as="geometry" />
        </mxCell>
        <mxCell id="kN23SIiuE2cJNR3_Q04W-34" value="" style="shape=tableRow;horizontal=0;startSize=0;swimlaneHead=0;swimlaneBody=0;top=0;left=0;bottom=0;right=0;collapsible=0;dropTarget=0;fillColor=none;points=[[0,0.5],[1,0.5]];portConstraint=eastwest;sketch=1;fontSize=16;fontFamily=Comic Sans MS;movable=1;resizable=1;rotatable=1;deletable=1;editable=1;connectable=1;" vertex="1" parent="kN23SIiuE2cJNR3_Q04W-33">
          <mxGeometry width="160" height="40" as="geometry" />
        </mxCell>
        <mxCell id="kN23SIiuE2cJNR3_Q04W-35" value="ResourceNode" style="shape=partialRectangle;html=1;whiteSpace=wrap;connectable=1;overflow=hidden;fillColor=none;top=0;left=0;bottom=0;right=0;pointerEvents=1;sketch=1;fontSize=16;fontFamily=Comic Sans MS;movable=1;resizable=1;rotatable=1;deletable=1;editable=1;" vertex="1" parent="kN23SIiuE2cJNR3_Q04W-34">
          <mxGeometry width="160" height="40" as="geometry">
            <mxRectangle width="160" height="40" as="alternateBounds" />
          </mxGeometry>
        </mxCell>
        <mxCell id="kN23SIiuE2cJNR3_Q04W-36" value="" style="shape=tableRow;horizontal=0;startSize=0;swimlaneHead=0;swimlaneBody=0;top=0;left=0;bottom=0;right=0;collapsible=0;dropTarget=0;fillColor=none;points=[[0,0.5],[1,0.5]];portConstraint=eastwest;sketch=1;fontSize=16;fontFamily=Comic Sans MS;movable=1;resizable=1;rotatable=1;deletable=1;editable=1;connectable=1;" vertex="1" parent="kN23SIiuE2cJNR3_Q04W-33">
          <mxGeometry y="40" width="160" height="40" as="geometry" />
        </mxCell>
        <mxCell id="kN23SIiuE2cJNR3_Q04W-37" value="method: process()" style="shape=partialRectangle;html=1;whiteSpace=wrap;connectable=1;overflow=hidden;fillColor=none;top=0;left=0;bottom=0;right=0;pointerEvents=1;sketch=1;fontSize=16;fontFamily=Comic Sans MS;movable=1;resizable=1;rotatable=1;deletable=1;editable=1;" vertex="1" parent="kN23SIiuE2cJNR3_Q04W-36">
          <mxGeometry width="160" height="40" as="geometry">
            <mxRectangle width="160" height="40" as="alternateBounds" />
          </mxGeometry>
        </mxCell>
        <mxCell id="kN23SIiuE2cJNR3_Q04W-38" value="" style="shape=table;startSize=0;container=1;collapsible=0;childLayout=tableLayout;sketch=1;fontSize=16;fontFamily=Comic Sans MS;flipV=1;movable=1;resizable=1;rotatable=1;deletable=1;editable=1;connectable=1;" vertex="1" parent="1">
          <mxGeometry x="801" y="360" width="160" height="80" as="geometry" />
        </mxCell>
        <mxCell id="kN23SIiuE2cJNR3_Q04W-39" value="" style="shape=tableRow;horizontal=0;startSize=0;swimlaneHead=0;swimlaneBody=0;top=0;left=0;bottom=0;right=0;collapsible=0;dropTarget=0;fillColor=none;points=[[0,0.5],[1,0.5]];portConstraint=eastwest;sketch=1;fontSize=16;fontFamily=Comic Sans MS;movable=1;resizable=1;rotatable=1;deletable=1;editable=1;connectable=1;" vertex="1" parent="kN23SIiuE2cJNR3_Q04W-38">
          <mxGeometry width="160" height="40" as="geometry" />
        </mxCell>
        <mxCell id="kN23SIiuE2cJNR3_Q04W-40" value="SkillNode" style="shape=partialRectangle;html=1;whiteSpace=wrap;connectable=1;overflow=hidden;fillColor=none;top=0;left=0;bottom=0;right=0;pointerEvents=1;sketch=1;fontSize=16;fontFamily=Comic Sans MS;movable=1;resizable=1;rotatable=1;deletable=1;editable=1;" vertex="1" parent="kN23SIiuE2cJNR3_Q04W-39">
          <mxGeometry width="160" height="40" as="geometry">
            <mxRectangle width="160" height="40" as="alternateBounds" />
          </mxGeometry>
        </mxCell>
        <mxCell id="kN23SIiuE2cJNR3_Q04W-41" value="" style="shape=tableRow;horizontal=0;startSize=0;swimlaneHead=0;swimlaneBody=0;top=0;left=0;bottom=0;right=0;collapsible=0;dropTarget=0;fillColor=none;points=[[0,0.5],[1,0.5]];portConstraint=eastwest;sketch=1;fontSize=16;fontFamily=Comic Sans MS;movable=1;resizable=1;rotatable=1;deletable=1;editable=1;connectable=1;" vertex="1" parent="kN23SIiuE2cJNR3_Q04W-38">
          <mxGeometry y="40" width="160" height="40" as="geometry" />
        </mxCell>
        <mxCell id="kN23SIiuE2cJNR3_Q04W-42" value="method: process()" style="shape=partialRectangle;html=1;whiteSpace=wrap;connectable=1;overflow=hidden;fillColor=none;top=0;left=0;bottom=0;right=0;pointerEvents=1;sketch=1;fontSize=16;fontFamily=Comic Sans MS;movable=1;resizable=1;rotatable=1;deletable=1;editable=1;" vertex="1" parent="kN23SIiuE2cJNR3_Q04W-41">
          <mxGeometry width="160" height="40" as="geometry">
            <mxRectangle width="160" height="40" as="alternateBounds" />
          </mxGeometry>
        </mxCell>
        <mxCell id="kN23SIiuE2cJNR3_Q04W-43" value="" style="shape=table;startSize=0;container=1;collapsible=0;childLayout=tableLayout;sketch=1;fontSize=16;fontFamily=Comic Sans MS;flipV=1;movable=1;resizable=1;rotatable=1;deletable=1;editable=1;connectable=1;" vertex="1" parent="1">
          <mxGeometry x="801" y="521" width="160" height="80" as="geometry" />
        </mxCell>
        <mxCell id="kN23SIiuE2cJNR3_Q04W-44" value="" style="shape=tableRow;horizontal=0;startSize=0;swimlaneHead=0;swimlaneBody=0;top=0;left=0;bottom=0;right=0;collapsible=0;dropTarget=0;fillColor=none;points=[[0,0.5],[1,0.5]];portConstraint=eastwest;sketch=1;fontSize=16;fontFamily=Comic Sans MS;movable=1;resizable=1;rotatable=1;deletable=1;editable=1;connectable=1;" vertex="1" parent="kN23SIiuE2cJNR3_Q04W-43">
          <mxGeometry width="160" height="40" as="geometry" />
        </mxCell>
        <mxCell id="kN23SIiuE2cJNR3_Q04W-45" value="OtherNodes" style="shape=partialRectangle;html=1;whiteSpace=wrap;connectable=1;overflow=hidden;fillColor=none;top=0;left=0;bottom=0;right=0;pointerEvents=1;sketch=1;fontSize=16;fontFamily=Comic Sans MS;movable=1;resizable=1;rotatable=1;deletable=1;editable=1;" vertex="1" parent="kN23SIiuE2cJNR3_Q04W-44">
          <mxGeometry width="160" height="40" as="geometry">
            <mxRectangle width="160" height="40" as="alternateBounds" />
          </mxGeometry>
        </mxCell>
        <mxCell id="kN23SIiuE2cJNR3_Q04W-46" value="" style="shape=tableRow;horizontal=0;startSize=0;swimlaneHead=0;swimlaneBody=0;top=0;left=0;bottom=0;right=0;collapsible=0;dropTarget=0;fillColor=none;points=[[0,0.5],[1,0.5]];portConstraint=eastwest;sketch=1;fontSize=16;fontFamily=Comic Sans MS;movable=1;resizable=1;rotatable=1;deletable=1;editable=1;connectable=1;" vertex="1" parent="kN23SIiuE2cJNR3_Q04W-43">
          <mxGeometry y="40" width="160" height="40" as="geometry" />
        </mxCell>
        <mxCell id="kN23SIiuE2cJNR3_Q04W-47" value="method: process()" style="shape=partialRectangle;html=1;whiteSpace=wrap;connectable=1;overflow=hidden;fillColor=none;top=0;left=0;bottom=0;right=0;pointerEvents=1;sketch=1;fontSize=16;fontFamily=Comic Sans MS;movable=1;resizable=1;rotatable=1;deletable=1;editable=1;" vertex="1" parent="kN23SIiuE2cJNR3_Q04W-46">
          <mxGeometry width="160" height="40" as="geometry">
            <mxRectangle width="160" height="40" as="alternateBounds" />
          </mxGeometry>
        </mxCell>
        <mxCell id="kN23SIiuE2cJNR3_Q04W-49" value="" style="shape=table;startSize=0;container=1;collapsible=0;childLayout=tableLayout;sketch=1;fontSize=16;fontFamily=Comic Sans MS;flipV=1;movable=1;resizable=1;rotatable=1;deletable=1;editable=1;connectable=1;" vertex="1" parent="1">
          <mxGeometry x="440" y="275" width="240" height="160" as="geometry" />
        </mxCell>
        <mxCell id="kN23SIiuE2cJNR3_Q04W-50" value="" style="shape=tableRow;horizontal=0;startSize=0;swimlaneHead=0;swimlaneBody=0;top=0;left=0;bottom=0;right=0;collapsible=0;dropTarget=0;fillColor=none;points=[[0,0.5],[1,0.5]];portConstraint=eastwest;sketch=1;fontSize=16;fontFamily=Comic Sans MS;movable=1;resizable=1;rotatable=1;deletable=1;editable=1;connectable=1;" vertex="1" parent="kN23SIiuE2cJNR3_Q04W-49">
          <mxGeometry width="240" height="80" as="geometry" />
        </mxCell>
        <mxCell id="kN23SIiuE2cJNR3_Q04W-51" value="AbstractNode" style="shape=partialRectangle;html=1;whiteSpace=wrap;connectable=1;overflow=hidden;fillColor=none;top=0;left=0;bottom=0;right=0;pointerEvents=1;sketch=1;fontSize=16;fontFamily=Comic Sans MS;movable=1;resizable=1;rotatable=1;deletable=1;editable=1;" vertex="1" parent="kN23SIiuE2cJNR3_Q04W-50">
          <mxGeometry width="240" height="80" as="geometry">
            <mxRectangle width="240" height="80" as="alternateBounds" />
          </mxGeometry>
        </mxCell>
        <mxCell id="kN23SIiuE2cJNR3_Q04W-52" value="" style="shape=tableRow;horizontal=0;startSize=0;swimlaneHead=0;swimlaneBody=0;top=0;left=0;bottom=0;right=0;collapsible=0;dropTarget=0;fillColor=none;points=[[0,0.5],[1,0.5]];portConstraint=eastwest;sketch=1;fontSize=16;fontFamily=Comic Sans MS;movable=1;resizable=1;rotatable=1;deletable=1;editable=1;connectable=1;" vertex="1" parent="kN23SIiuE2cJNR3_Q04W-49">
          <mxGeometry y="80" width="240" height="80" as="geometry" />
        </mxCell>
        <mxCell id="kN23SIiuE2cJNR3_Q04W-53" value="+ getCurrentNodeState" style="shape=partialRectangle;html=1;whiteSpace=wrap;connectable=1;overflow=hidden;fillColor=none;top=0;left=0;bottom=0;right=0;pointerEvents=1;sketch=1;fontSize=16;fontFamily=Comic Sans MS;movable=1;resizable=1;rotatable=1;deletable=1;editable=1;" vertex="1" parent="kN23SIiuE2cJNR3_Q04W-52">
          <mxGeometry width="240" height="80" as="geometry">
            <mxRectangle width="240" height="80" as="alternateBounds" />
          </mxGeometry>
        </mxCell>
        <mxCell id="kN23SIiuE2cJNR3_Q04W-54" value="" style="shape=table;startSize=0;container=1;collapsible=0;childLayout=tableLayout;sketch=1;fontSize=16;fontFamily=Comic Sans MS;flipV=1;movable=1;resizable=1;rotatable=1;deletable=1;editable=1;connectable=1;" vertex="1" parent="1">
          <mxGeometry x="480" y="114" width="160" height="80" as="geometry" />
        </mxCell>
        <mxCell id="kN23SIiuE2cJNR3_Q04W-55" value="" style="shape=tableRow;horizontal=0;startSize=0;swimlaneHead=0;swimlaneBody=0;top=0;left=0;bottom=0;right=0;collapsible=0;dropTarget=0;fillColor=none;points=[[0,0.5],[1,0.5]];portConstraint=eastwest;sketch=1;fontSize=16;fontFamily=Comic Sans MS;movable=1;resizable=1;rotatable=1;deletable=1;editable=1;connectable=1;" vertex="1" parent="kN23SIiuE2cJNR3_Q04W-54">
          <mxGeometry width="160" height="40" as="geometry" />
        </mxCell>
        <mxCell id="kN23SIiuE2cJNR3_Q04W-56" value="&amp;lt;interface&amp;gt;" style="shape=partialRectangle;html=1;whiteSpace=wrap;connectable=1;overflow=hidden;fillColor=none;top=0;left=0;bottom=0;right=0;pointerEvents=1;sketch=1;fontSize=16;fontFamily=Comic Sans MS;movable=1;resizable=1;rotatable=1;deletable=1;editable=1;" vertex="1" parent="kN23SIiuE2cJNR3_Q04W-55">
          <mxGeometry width="160" height="40" as="geometry">
            <mxRectangle width="160" height="40" as="alternateBounds" />
          </mxGeometry>
        </mxCell>
        <mxCell id="kN23SIiuE2cJNR3_Q04W-57" value="" style="shape=tableRow;horizontal=0;startSize=0;swimlaneHead=0;swimlaneBody=0;top=0;left=0;bottom=0;right=0;collapsible=0;dropTarget=0;fillColor=none;points=[[0,0.5],[1,0.5]];portConstraint=eastwest;sketch=1;fontSize=16;fontFamily=Comic Sans MS;movable=1;resizable=1;rotatable=1;deletable=1;editable=1;connectable=1;" vertex="1" parent="kN23SIiuE2cJNR3_Q04W-54">
          <mxGeometry y="40" width="160" height="40" as="geometry" />
        </mxCell>
        <mxCell id="kN23SIiuE2cJNR3_Q04W-58" value="Node" style="shape=partialRectangle;html=1;whiteSpace=wrap;connectable=1;overflow=hidden;fillColor=none;top=0;left=0;bottom=0;right=0;pointerEvents=1;sketch=1;fontSize=16;fontFamily=Comic Sans MS;movable=1;resizable=1;rotatable=1;deletable=1;editable=1;" vertex="1" parent="kN23SIiuE2cJNR3_Q04W-57">
          <mxGeometry width="160" height="40" as="geometry">
            <mxRectangle width="160" height="40" as="alternateBounds" />
          </mxGeometry>
        </mxCell>
        <mxCell id="kN23SIiuE2cJNR3_Q04W-60" value="" style="edgeStyle=elbowEdgeStyle;elbow=horizontal;endArrow=classic;html=1;rounded=0;fontFamily=Comic Sans MS;fontSize=16;entryX=0;entryY=0.25;entryDx=0;entryDy=0;exitX=1;exitY=0;exitDx=0;exitDy=0;sketch=1;" edge="1" parent="1" source="kN23SIiuE2cJNR3_Q04W-17" target="kN23SIiuE2cJNR3_Q04W-51">
          <mxGeometry width="50" height="50" relative="1" as="geometry">
            <mxPoint x="320" y="130" as="sourcePoint" />
            <mxPoint x="370" y="80" as="targetPoint" />
          </mxGeometry>
        </mxCell>
        <mxCell id="kN23SIiuE2cJNR3_Q04W-61" value="" style="edgeStyle=elbowEdgeStyle;elbow=horizontal;endArrow=classic;html=1;rounded=0;fontFamily=Comic Sans MS;fontSize=16;exitX=1;exitY=0;exitDx=0;exitDy=0;entryX=0;entryY=0.75;entryDx=0;entryDy=0;sketch=1;" edge="1" parent="1" source="kN23SIiuE2cJNR3_Q04W-22" target="kN23SIiuE2cJNR3_Q04W-51">
          <mxGeometry width="50" height="50" relative="1" as="geometry">
            <mxPoint x="560" y="310" as="sourcePoint" />
            <mxPoint x="610" y="260" as="targetPoint" />
            <Array as="points">
              <mxPoint x="360" y="290" />
            </Array>
          </mxGeometry>
        </mxCell>
        <mxCell id="kN23SIiuE2cJNR3_Q04W-62" value="" style="edgeStyle=elbowEdgeStyle;elbow=horizontal;endArrow=classic;html=1;rounded=0;fontFamily=Comic Sans MS;fontSize=16;exitX=0;exitY=1;exitDx=0;exitDy=0;entryX=1;entryY=0.25;entryDx=0;entryDy=0;sketch=1;" edge="1" parent="1" source="kN23SIiuE2cJNR3_Q04W-40" target="kN23SIiuE2cJNR3_Q04W-53">
          <mxGeometry width="50" height="50" relative="1" as="geometry">
            <mxPoint x="740" y="164" as="sourcePoint" />
            <mxPoint x="790" y="114" as="targetPoint" />
          </mxGeometry>
        </mxCell>
        <mxCell id="kN23SIiuE2cJNR3_Q04W-63" value="" style="edgeStyle=elbowEdgeStyle;elbow=horizontal;endArrow=classic;html=1;rounded=0;fontFamily=Comic Sans MS;fontSize=16;exitX=1;exitY=0;exitDx=0;exitDy=0;entryX=0;entryY=0.75;entryDx=0;entryDy=0;sketch=1;" edge="1" parent="1" source="kN23SIiuE2cJNR3_Q04W-32" target="kN23SIiuE2cJNR3_Q04W-53">
          <mxGeometry width="50" height="50" relative="1" as="geometry">
            <mxPoint x="350" y="571" as="sourcePoint" />
            <mxPoint x="400" y="521" as="targetPoint" />
          </mxGeometry>
        </mxCell>
        <mxCell id="kN23SIiuE2cJNR3_Q04W-64" value="" style="edgeStyle=elbowEdgeStyle;elbow=horizontal;endArrow=classic;html=1;rounded=0;fontFamily=Comic Sans MS;fontSize=16;exitX=1;exitY=0;exitDx=0;exitDy=0;entryX=0;entryY=0.25;entryDx=0;entryDy=0;sketch=1;" edge="1" parent="1" source="kN23SIiuE2cJNR3_Q04W-27" target="kN23SIiuE2cJNR3_Q04W-53">
          <mxGeometry width="50" height="50" relative="1" as="geometry">
            <mxPoint x="350" y="450" as="sourcePoint" />
            <mxPoint x="400" y="400" as="targetPoint" />
          </mxGeometry>
        </mxCell>
        <mxCell id="kN23SIiuE2cJNR3_Q04W-65" value="" style="edgeStyle=elbowEdgeStyle;elbow=horizontal;endArrow=classic;html=1;rounded=0;fontFamily=Comic Sans MS;fontSize=16;exitX=0;exitY=0;exitDx=0;exitDy=0;entryX=1;entryY=0.75;entryDx=0;entryDy=0;sketch=1;" edge="1" parent="1" source="kN23SIiuE2cJNR3_Q04W-47" target="kN23SIiuE2cJNR3_Q04W-53">
          <mxGeometry width="50" height="50" relative="1" as="geometry">
            <mxPoint x="590" y="510" as="sourcePoint" />
            <mxPoint x="640" y="460" as="targetPoint" />
          </mxGeometry>
        </mxCell>
        <mxCell id="kN23SIiuE2cJNR3_Q04W-66" value="" style="edgeStyle=elbowEdgeStyle;elbow=horizontal;endArrow=classic;html=1;rounded=0;fontFamily=Comic Sans MS;fontSize=16;exitX=0;exitY=0;exitDx=0;exitDy=0;entryX=1.013;entryY=0.375;entryDx=0;entryDy=0;entryPerimeter=0;sketch=1;" edge="1" parent="1" source="kN23SIiuE2cJNR3_Q04W-37" target="kN23SIiuE2cJNR3_Q04W-51">
          <mxGeometry width="50" height="50" relative="1" as="geometry">
            <mxPoint x="710" y="194" as="sourcePoint" />
            <mxPoint x="760" y="144" as="targetPoint" />
            <Array as="points">
              <mxPoint x="720" y="200" />
            </Array>
          </mxGeometry>
        </mxCell>
        <mxCell id="kN23SIiuE2cJNR3_Q04W-67" value="" style="edgeStyle=elbowEdgeStyle;elbow=horizontal;endArrow=classic;html=1;rounded=0;fontFamily=Comic Sans MS;fontSize=16;exitX=0;exitY=0;exitDx=0;exitDy=0;entryX=1;entryY=0.75;entryDx=0;entryDy=0;sketch=1;" edge="1" parent="1" source="kN23SIiuE2cJNR3_Q04W-12" target="kN23SIiuE2cJNR3_Q04W-51">
          <mxGeometry width="50" height="50" relative="1" as="geometry">
            <mxPoint x="720" y="290" as="sourcePoint" />
            <mxPoint x="770" y="240" as="targetPoint" />
          </mxGeometry>
        </mxCell>
        <mxCell id="kN23SIiuE2cJNR3_Q04W-68" value="" style="endArrow=classic;html=1;rounded=0;fontFamily=Comic Sans MS;fontSize=16;exitX=0.5;exitY=0;exitDx=0;exitDy=0;entryX=0.5;entryY=1;entryDx=0;entryDy=0;sketch=1;dashed=1;" edge="1" parent="1" source="kN23SIiuE2cJNR3_Q04W-51" target="kN23SIiuE2cJNR3_Q04W-58">
          <mxGeometry width="50" height="50" relative="1" as="geometry">
            <mxPoint x="560" y="310" as="sourcePoint" />
            <mxPoint x="610" y="260" as="targetPoint" />
          </mxGeometry>
        </mxCell>
        <mxCell id="kN23SIiuE2cJNR3_Q04W-69" value="&lt;div style=&quot;line-height: 190%;&quot;&gt;&lt;ul&gt;&lt;li&gt;&lt;b&gt;&lt;font color=&quot;#ff0000&quot;&gt;运行时节点设计&lt;/font&gt;&lt;/b&gt;：每个节点都有自己的个性化数据、process方法用于执行节点的运行时逻辑。&lt;/li&gt;&lt;li&gt;&lt;b&gt;&lt;font color=&quot;#ff0000&quot;&gt;标准充血模型&lt;/font&gt;&lt;/b&gt;。&lt;/li&gt;&lt;/ul&gt;&lt;/div&gt;" style="text;html=1;strokeColor=none;fillColor=none;align=left;verticalAlign=middle;whiteSpace=wrap;rounded=0;sketch=1;fontFamily=Comic Sans MS;fontSize=16;" vertex="1" parent="1">
          <mxGeometry x="360" y="601" width="400" height="89" as="geometry" />
        </mxCell>
      </root>
    </mxGraphModel>
  </diagram>
</mxfile>
